<?xml version="1.0" encoding="UTF-8" standalone="no"?>
<svg viewBox="0 0 287.5686 337.65829" xmlns="http://www.w3.org/2000/svg">
<title>Italia</title>
<g transform="translate(-130.56268,-209.67001)">
<path d="m155.49149,305.92031c-1.44372-.59815-2.1616-.6329-4.45517-.21565-3.2447.59028-5.67065.15651-8.87332-1.5866-3.00914-1.63778-4.77599-3.7533-4.77599-5.71848 0-.86126-.31915-2.18311-.70923-2.93743l-.70923-1.3715 2.4913-2.51757c1.37021-1.38466 2.4913-2.83587 2.4913-3.2249s-.42278-1.72465-.93951-2.96804c-.76467-1.83999-1.28754-2.42432-2.80953-3.13973-2.23917-1.05254-2.59408-1.46935-3.46912-4.07423-.3704-1.10266-.80786-2.31392-.97212-2.69169-.23632-.5435.37838-.88604 2.94512-1.64119 1.78408-.52488 3.94469-1.42584 4.80137-2.00213 1.73368-1.16626 3.06293-3.48043 3.09549-5.38911 .0344-2.01776.69792-2.75932 3.67469-4.10706 2.12015-.95989 3.4061-1.25299 5.25706-1.19818 3.97484.11769 6.13132-.31422 7.55652-1.51344 1.74897-1.47166 2.08147-3.42799 1.10768-6.5172-.43285-1.37315-.64657-2.94027-.48745-3.57425 .15585-.62094 1.49847-2.58333 2.9836-4.36087 3.70083-4.42947 4.21123-5.48506 3.49186-7.22177-.52297-1.26257-.48368-1.41814.5218-2.06593 .59805-.3853 1.65411-1.25391 2.3468-1.93024s1.31944-1.22969 1.39277-1.22969 .2219,1.0682.33017,2.37377c.13915,1.67795.5471,2.83298 1.39172,3.94033 .65717.8616 1.19487,1.79118 1.19487,2.06572 0,.55063 1.38109,1.39138 2.99433,1.82283l1.04156.27855-1.30222,1.77629c-2.45053,3.34266-3.46258,8.83865-1.90314,10.33515 .45679.43835 1.27145,2.13942 1.81037,3.78015s1.36807,3.47669 1.84257,4.07992c1.12165,1.42595 1.08786,1.90199-.19466,2.74233-.73904.48423-1.58385.60864-2.80598.41322-1.31572-.21039-1.89626-.10168-2.34511.43914-.96947,1.16815-.25976,4.96133 1.63194,8.72224l1.68068,3.34138 2.39252.24018c1.84817.18553 2.6084.49964 3.34138,1.3806 3.85597,4.63448 5.67782,7.31391 6.02567,8.86208 .46187,2.05566.0793,2.22718-1.95819.87783-2.02663-1.34219-3.67365-1.17025-4.58728.47887-1.63637,2.95374-1.60298,2.93341-3.40623,2.0735-1.56189-.74481-1.68074-.73963-3.42322.14932-1.07232.54706-3.10036,1.02416-4.99559,1.17522-3.42958.27335-4.74975.7236-4.74975,1.61991 0,.31064-.80193,2.22309-1.78207,4.24989s-1.78206,4.17634-1.78206,4.77676c0,1.92773-3.19735,2.52818-6.39897,1.2017z" fill="#008000" fill-rule="evenodd" stroke="#000"/>
<path d="m190.15692,285.39901c-.25817-.18003-1.61244-1.77139-3.0095-3.53637-3.2109-4.05649-5.26164-5.67366-6.72808-5.3056-.5956.14948-1.37812.15851-1.73893.02-.75702-.29049-2.73932-4.59432-3.1537-6.8471l-.28156-1.53067 1.0813,1.01583c.72223.6785 1.37613.92225 1.96915.73403 1.08908-.34565 4.53416-4.01402 4.53416-4.82803 0-.32475-.57423-1.38176-1.27608-2.34892s-1.62534-2.86111-2.05222-4.2088-1.27765-3.23053-1.8906-4.1841c-.86439-1.34472-1.0563-2.09214-.85527-3.33093 .31892-1.96525 1.6266-3.80008 2.83746-3.98128 1.08394-.16221 2.79119,1.81052 2.79119,3.22522 0,1.93873 2.01997,2.66451 3.84941,1.38312 .74462-.52155.97316-1.26723 1.15125-3.75635 .22701-3.1727.80072-4.66224 3.36464-8.73567 .77116-1.22518 1.63759-3.23 1.92541-4.45517s.61301-2.52831.72265-2.89586c.12525-.41988.59456.10245 1.2626,1.40524 1.20563,2.35119 2.9897,3.94936 4.37964,3.92328 .51828-.01 2.02839-.60228 3.35578-1.3168s2.55453-1.21195 2.72694-1.10539 .42565.75456.56274,1.44001c.68422,3.42109 3.5652,4.64832 5.33185,2.27124 .84443-1.13621.84776-1.2271.0918-2.50689-.72916-1.23436-.73311-1.4012-.0561-2.36778 .69871-.99755.67412-1.08935-.60461-2.2573-.9296-.84906-1.33295-1.63372-1.33295-2.5931 0-2.1824 1.07428-2.18458 5.22412-.0106 4.36822,2.28836 4.8221,2.7192 4.16266,3.95137-.26204.48962-.47643,2.76338-.47643,5.0528 0,3.24086-.17205,4.40648-.77701,5.26411-1.60184,2.27091-.24182,10.14621 1.89372,10.96569 .39415.15125 1.5426-.0494 2.55211-.44599s1.91329-.64317 2.00841-.54805-.46541,1.30401-1.2456,2.68643c-1.90136,3.36904-2.26489,7.21853-.96021,10.16797 1.14655,2.59196 7.54092,9.30407 10.03152,10.52998 1.02707.50554 2.52948,1.49778 3.33868,2.20497l1.47129,1.2858-4.81267.21773c-4.18383.18929-5.05368.10124-6.65732-.67391l-1.84467-.89165-1.34273.95611c-1.72729,1.22994-2.56128,1.20381-5.57213-.1746-1.35839-.62189-3.50524-1.25334-4.77077-1.40323-2.06533-.2446-2.37455-.4268-3.01938-1.77903-.91693-1.92282-2.09532-2.20383-5.56519-1.32715-1.6481.41639-2.83169.52758-2.92.27431-.25744-.73833-2.91002-.45922-4.42726.46584-.80143.48864-2.07089,1.84114-2.82102,3.00558-1.23623,1.91902-1.34024,2.35689-1.11141,4.67887 .25156,2.55261-.0681,3.09167-1.31706,2.22077z" fill="#008000" fill-rule="evenodd" stroke="#000"/>
<path d="m228.36161,254.01915c-.29404-.29404-.53462-.80436-.53462-1.13405s-.49209-1.09151-1.09354-1.69296c-1.26293-1.26293-3.2036-1.42853-5.12101-.437-.99265.51332-1.36506.53762-1.70715.11138-.84009-1.04675-.85888-4.11711-.0442-7.22792 .44918-1.71524.82141-4.10897.82718-5.31939s.25062-3.36338.54411-4.78434c.51949-2.51513.50272-2.61617-.63296-3.81372s-3.01929-5.94023-3.01929-7.616c0-1.05946 1.64183-3.19275 2.45722-3.19275 .33576,0 1.31518.41578 2.17649.92397 1.0376.6122 2.69597,1.00943 4.91479,1.17724l3.34878.25326 .90439-2.10985c1.56333-3.64711 3.24849-4.39859 11.06138-4.93272 2.28057-.15591 5.53587-.66849 7.23401-1.13906s3.15857-.8556 3.2454-.8556 .39095.77793.67582,1.72874c.30416,1.0152 1.71242,3.06084 3.4119,4.95614 1.59168,1.77508 2.89396,3.39385 2.89396,3.59728 0,.67075-3.22207.99736-4.67087.47347-2.3259-.84106-2.92005-.64762-3.63995,1.18508-.45269,1.15242-1.27533,2.06225-2.57377,2.84653-1.70576,1.03032-1.9433,1.38269-2.23697,3.31826-.53938,3.55501-.43873,4.32503.82743,6.33077 1.61849,2.56386 1.41093,3.69555-.79067,4.31101-1.9079.53336-2.95382,1.64873-2.95382,3.14995 0,.89058-.1699.96346-1.75147.75133-3.43189-.46032-7.22559,2.32292-8.47254,6.21584-.87683,2.73743-3.83103,4.37406-5.27999,2.92511z" fill="#008000" fill-rule="evenodd" stroke="#000"/>
<path d="m259.90423,280.37076c-2.36511-1.83579-10.34163-2.20899-13.40091-.62697-.6913.35748-1.69335.64997-2.22678.64997-1.61165,0-6.49056-2.65811-8.68694-4.73279-1.1354-1.07248-2.22309-1.94997-2.41709-1.94997s-1.72672-1.05376-3.40603-2.34169-3.59667-2.69073-4.26081-3.11733c-2.17061-1.39425-3.26765-7.17886-1.95655-10.31676 .82538-1.9754 1.13095-2.10666 3.19354-1.37184 .96393.34341 2.69709.63318 3.85146.64394 2.57215.024 3.37785-.72326 4.57385-4.24183 .72162-2.12295 1.24444-2.81148 3.27249-4.30969 2.34413-1.73171 2.46252-1.76696 4.10904-1.22356 2.26893.74882 2.91816.40682 3.25762-1.716 .25251-1.57913.47874-1.84763 1.95649-2.32209 2.2426-.72001 3.14065-1.58063 3.74127-3.58532 .4673-1.5597.4007-1.83337-.93109-3.82574-1.22638-1.83467-1.40307-2.43561-1.21838-4.1438 .14935-1.38129.51406-2.20631 1.18166-2.6731 .5311-.37135 1.62943-1.2265 2.44073-1.90035 1.222-1.01496 1.90298-1.22517 3.96899-1.22517 1.37164,0 3.27391-.3121 4.22726-.69356 1.03995-.4161 2.69083-.63889 4.12673-.55689l2.39336.13666-3.13318,3.34138c-4.97762,5.3084-5.54777,6.12268-5.54777,7.92332 0,1.25975.35916,1.98553 1.62304,3.27987l1.62304,1.66215-.732,1.54259c-1.16905,2.46357-.77634,4.65278 1.06986,5.96408 .42318.30058.8904,1.02852 1.03826,1.61764 .27815,1.10824 2.62519,2.5269 4.13272,2.498 .45304-.009 1.32491-.3023 1.93749-.65249s1.5495-.6438 2.08203-.65248c1.30263-.0212 3.55315,1.93624 3.81781,3.3207 .2537,1.32718-.36942,1.50989-.77639.22765-.19882-.62645-.67408-.89104-1.60047-.89104-1.10074,0-1.36066.21496-1.57881,1.3057-.35608,1.78042-1.45199,2.85199-5.75724,5.62934-5.21358,3.36332-6.87032,5.93754-6.87685,10.68516-.001.99239-.24466,2.04653-.54066,2.34252-.42055.42055-.0311,1.05165 1.78207,2.88759 2.38425,2.41424 2.84951,3.58229 1.61553,4.05581-.84846.32559-.62609.39829-1.96839-.64361z" fill="#008000" fill-rule="evenodd" stroke="#000"/>
<path d="m276.40412,251.02768c-.72263-1.74458-1.59544-1.97948-5.99382-1.61309-3.56898.29729-3.66077.27953-4.88548-.94518-.68648-.68648-1.53541-1.80365-1.88651-2.48259-.56217-1.08713-.55253-1.40037.0808-2.6251 .96009-1.85661.49984-4.16453-1.1619-5.82626l-1.29115-1.29115 1.28913-2.09458c.76958-1.25042 2.33557-2.81525 3.88563-3.88275 1.42808-.98349 2.79699-2.24488 3.04203-2.80307s.93759-1.1388 1.53901-1.29023c1.02302-.25758 12.71035.47072 16.77724,1.04548l1.83212.25893-3.16867,2.76256c-2.41802,2.10811-3.2002,3.07805-3.30174,4.09432-.1739,1.74038 1.45052,3.90183 2.68897,3.57797 .86639-.22656 3.02987.50149 2.99495,1.00786-.01.14444-.6114.95674-1.33655,1.80511-1.79512,2.10016-1.78791,3.90917.0181,4.53876 .7351.25625 1.33655.52207 1.33655.59069s-.33188.90106-.73752,1.84986-.70008,2.37667-.65432,3.17303c.0959,1.66856.13458,1.66014-3.62525.78818-2.70142-.6265-3.80185-.55268-6.16854.41382-.51537.21047-.87208-.0845-1.27309-1.05257z" fill="#008000" fill-rule="evenodd" stroke="#000"/>
<path d="m140.61701,260.47796c-.30629-.1137-.55689-.5176-.55689-.89756 0-1.62323-1.14166-4.26801-2.55519-5.9194l-1.5211-1.77706 1.25232-.47613c.68877-.26187 3.25991-.77988 5.71365-1.15114s5.71858-1.0599 7.25519-1.53033c3.49172-1.06899 4.42481-1.06855 6.18195.003 1.64927,1.00566 2.32066,2.7578 2.48794,6.49281l.11971,2.6731-4.00965.35826c-2.20531.19704-5.61352.73796-7.57379,1.20204-4.37823,1.0365-6.07041,1.29118-6.79414,1.02252z" fill="#008000" fill-rule="evenodd" stroke="#000"/>
<path d="m151.19804,317.1868c0-.33447.91288-1.84818 2.02862-3.36381s2.22118-3.26216 2.45654-3.88119c.26701-.70229.66498-1.03455 1.05836-.8836 4.32322,1.65898 7.822-.27223 7.822-4.31749 0-.85689.56461-2.34143 1.37877-3.62523 .75833-1.19575 1.55388-2.63465 1.76789-3.19754 .31789-.83612.62107-.97705 1.65646-.76997 .79006.15801 2.59744-.19303 4.7992-.93214 3.22836-1.08372 3.62815-1.12871 4.65255-.52359 1.59139.94006 3.61391.0271 4.61536-2.08327 1.03387-2.1787 1.33108-2.26586 2.98392-.87508 1.25014,1.05192 1.77443,1.19478 4.05421,1.10475 3.69197-.1458 4.3868.33178 4.3868,3.01519 0,2.11452.0503,2.19652 1.89345,3.08989 1.92336.93222 9.2566,7.98705 7.76011,7.46549-.44885-.15643-1.06732-.28442-1.37437-.28442s-2.24537-1.03169-4.30736-2.29264c-5.09993-3.11872-8.85899-4.93226-13.17202-6.35477-5.0095-1.65222-6.75095-1.66115-8.90256-.0456-3.16919,2.37953-8.2592,7.54962-10.31286,10.47513-3.74131,5.32961-5.11413,6.39818-9.91227,7.71545-4.05742,1.11391-5.3328,1.24891-5.3328.56449z" fill="#008000" fill-rule="evenodd" stroke="#000"/>
<path d="m338.58655,435.39254c-1.44351-1.2286-3.19324-2.34754-3.88829-2.48655-1.74571-.34914-1.99054-.78941-2.53633-4.56096-.7913-5.46797-4.23742-11.17751-6.74646-11.17751-.44134,0-1.52217.30073-2.40185.66828-2.59335,1.08357-3.39572.88735-4.14219-1.01297-1.04484-2.65991-3.20506-3.85699-7.29608-4.0431l-3.41561-.15538-.94321-2.07221c-.51877-1.13971-1.85373-3.73536-2.96658-5.76812-1.9359-3.53615-1.995-3.7508-1.36695-4.9653 .36103-.69816.78873-2.0968.95044-3.10809 .34784-2.17529.84144-2.62927 1.50686-1.38592 .79195,1.47978 2.11138,1.10888 3.1253-.87856 .50002-.98014 1.23432-1.78207 1.63175-1.78207s2.34807.67928 4.33474,1.50951 3.92863,1.6127 4.31547,1.73881c1.19438.38937 4.92869-.52074 7.96317-1.94075 2.70859-1.2675 2.93105-1.30461 3.46264-.57762 .31244.4273.57475,1.08943.5829,1.47141 .0187.87442 1.17898,2.24131 2.7772,3.27162 1.01211.65247 1.15163.94617.77966,1.64122-.82488,1.54129-.51328,2.66356.99487,3.5831 .79637.48555 1.9742.88357 2.61742.88448 2.03656.003 4.02232.55246 4.26306,1.1798 .46541,1.21285-.30356,2.72113-1.67746,3.29022-1.75189.72565-2.28224,2.08532-1.6744,4.29269 .56526,2.05272 2.39796,5.76528 3.04276,6.16378 .25435.1572.95054,1.24899 1.54707,2.4262s2.19405,3.51869 3.55003,5.20329c1.60021,1.98804 2.46739,3.48088 2.47105,4.25391 .007,1.54445-1.89664,3.79021-3.51459,4.14558-.69771.15324-1.72965.76943-2.2932,1.3693s-1.34054,1.08282-1.72664,1.0732-1.88305-1.0227-3.32655-2.25129z" fill="#f00" fill-rule="evenodd" stroke="#000"/>
<path d="m410.71178,437.21798c-2.01384-1.00365-3.5482-3.04414-4.02174-5.34839-.43823-2.13241-2.12214-5.35646-3.43885-6.58411-.89905-.83826-1.85777-1.08454-5.50168-1.41333-6.62668-.59791-11.36419-1.84678-9.64773-2.54325 .3063-.12429.5569-.70665.5569-1.29415 0-1.38232-1.34814-1.73364-5.36153-1.39717-2.88096.24153-4.30995.75689-6.52662,2.35377-.92537.66664-1.00711.63493-1.67062-.64815-.3837-.74199-.91808-2.41163-1.18752-3.71031-.66234-3.19245-1.4124-4.23278-3.50345-4.85927-1.495-.44792-2.08904-.40792-3.83287.25805l-2.06367.78812-2.51754-2.48436c-1.38466-1.3664-3.26147-2.79335-4.17071-3.17099-1.3413-.5571-1.7438-1.02328-2.1337-2.47124-.81984-3.04467-1.52744-3.24821-10.00183-2.87707-8.50651.37256-8.71255.30711-8.37797-2.66128 .20981-1.86144.14705-1.99465-1.28084-2.71847-2.11008-1.06965-3.06077-1.99196-3.06077-2.9694 0-.46259-.91921-1.82378-2.04269-3.02487-2.16814-2.31792-2.36506-3.68747-.61026-4.24442 1.63352-.51846 2.20722-1.5354 2.21351-3.9237 .009-3.32037.33993-4.18717 1.70501-4.46258 .65162-.13148 5.05599-.58258 9.78748-1.00245 8.46814-.75147 8.62102-.74974 9.77329.11055 .64382.48068 1.24939,1.11042 1.34573,1.39942s-.91636,1.68018-2.25043,3.09151-2.65326,3.00396-2.93154,3.53918c-1.13907,2.19078-.2726,4.80871 2.2477,6.79117 2.23605,1.75888 12.91981,6.10314 22.64081,9.20628 4.50543,1.43822 6.01851,2.20847 14.21872,7.23816 2.06199,1.26475 4.07743,2.29954 4.47874,2.29954 1.18626,0 7.62457,3.30099 10.12272,5.19004 4.57618,3.4604 10.74114,9.49076 11.65805,11.40349l.9086,1.89543-.88589,3.77169c-.78056,3.32325-1.76545,5.36215-2.58965,5.36106-.1458-.00019-1.06702-.40002-2.04716-.8885z" fill="#f00" fill-rule="evenodd" stroke="#000"/>
<path d="m358.0453,438.72806c-1.08908-1.17768-3.55064-1.437-5.73981-.60467-2.12947.80962-2.33087-.0706-.92454-4.04096 .76012-2.14594 1.13727-3.90738.95774-4.47302-.16288-.51319-1.48628-2.24635-2.94089-3.85145s-3.57763-4.59372-4.71783-6.64136-2.43725-3.83858-2.88235-3.97985c-1.37777-.43729-.96153-2.27913.99467-4.40135 1.15372-1.25164 1.89918-2.54398 2.06819-3.58543 .32991-2.03299 1.43121-2.7849 4.62955-3.1608 2.76135-.32454 3.9728.35423 3.9728,2.22596 0,1.20925.9851,2.16183 3.16698,3.06241 .88421.36497 2.95938,1.88856 4.61147,3.38575s3.28026,2.72217 3.61814,2.72217 1.4056-.3166 2.37269-.70356c2.91572-1.16663 3.68243-.79987 4.26478,2.04011 .27635,1.34769.89272,3.12809 1.36971,3.95645l1.37955,2.3905c.58544,1.01067-.0484,3.30691-1.753,6.35029-.8384,1.4969-1.40452,1.91439-3.53788,2.60904-2.50699.81629-2.55005.85942-3.33576,3.34137-.70669,2.23231-1.01902,2.62688-2.78384,3.51683-2.46458,1.24281-3.52706,1.20767-4.79037-.15843z" fill="#f00" fill-rule="evenodd" stroke="#000"/>
<path d="m353.96481,502.31776c-.68962-.68962-.9475-1.50111-.9475-2.98161 0-2.31023.46444-3.40934 2.2467-5.31692 2.28802-2.44889 3.84944-9.12696 2.65559-11.3577-.69557-1.29968-.094-2.12396 2.15389-2.95128 2.68448-.988 3.99844-2.1661 5.06694-4.54304l.86416-1.92237-1.7913-2.97832c-2.1145-3.5157-2.42532-4.29326-3.64422-9.11652-.59948-2.37217-1.7701-5.1548-3.32158-7.89559-3.3266-5.87665-5.71751-13.36551-4.26712-13.36551 .22472,0 1.34465.40124 2.48873.89165 3.63367,1.55758 8.46528,1.59883 10.79014.0921 .29958-.19416.80079-1.64771 1.1138-3.23012 .62301-3.1497 1.55531-3.81226 2.31694-1.64659 .3177.90339.21465,2.10634-.38764,4.52503-.9913,3.98084-.7518,6.65605.72272,8.07266 .56963.54726 2.34797,1.42155 3.95186,1.94287 3.78441,1.23005 8.37555,3.94341 9.34379,5.52217 .8881,1.44811 1.86554,6.68858 1.94285,10.41651l.0537,2.59133-2.00482.56573c-4.43081,1.25029-6.47553,2.03339-8.07771,3.09367-2.90242,1.92073-3.19761,2.7408-3.24811,9.02362-.0501,6.23767-.37866,7.25806-2.64118,8.2034-2.53293,1.05832-5.25473,5.14158-6.1216,9.18365-.60795,2.83479-1.67583,3.596-5.47229,3.90074-2.47807.19891-2.95983.10737-3.78678-.71959z" fill="#f00" fill-rule="evenodd" stroke="#000"/>
<path d="m330.74145,543.24261c-4.50677-.61606-6.69257-2.08114-9.40071-6.30105-1.59464-2.48481-2.89158-3.15614-8.95714-4.63638-6.69226-1.63319-9.8696-2.75726-11.85111-4.19266-.96671-.70028-2.63459-1.71938-3.70641-2.26467s-3.11523-1.88746-4.54092-2.98259c-3.24611-2.49349-9.85895-4.92225-14.4691-5.31421-2.48655-.21141-3.35099-.46462-3.6791-1.07769-.23588-.44075-.97858-1.06404-1.65046-1.38508-1.13458-.54215-1.23109-.8031-1.35508-3.66383-.16461-3.7982.39536-5.22305 2.72638-6.9373 2.20698-1.62304 2.81927-1.65148 4.75815-.22102 .83031.61258 1.94227,1.11379 2.47101,1.11379 1.32718,0 3.77696-1.74166 4.63427-3.29472 .53682-.97245 1.25768-1.42999 2.92924-1.85921 2.35168-.60387 2.70432-.49444 2.95908.91823 .12207.67691.68783.98243 2.38221,1.28642 1.22216.21927 2.39289.69052 2.60162,1.04722 .54745.93552 4.73377,2.78447 6.30325,2.78392 .7351-.00026 2.33897-.30501 3.56414-.67722s4.72707-.88017 7.782-1.12878c7.99307-.6505 11.97007-1.70082 13.22519-3.49275 .50164-.7162 1.33079-.86054 5.82745-1.01448l5.24259-.17946 3.78653-2.12669c2.08259-1.16968 4.13877-2.44546 4.56928-2.83507 2.74857-2.48742-.20274,4.51113-5.09982,12.09338-.93586,1.44901-1.90818,3.45384-2.16071,4.45517s-.99459,3.47497-1.64902,5.497c-1.07923,3.33449-1.13918,3.86602-.64461,5.71517 .29991,1.12132 1.04307,2.77132 1.65147,3.66666s1.10619,1.989 1.10619,2.43033 .50607,1.8011 1.12459,3.0217l1.1246,2.21927-1.78624,2.96162c-.98243,1.62889-1.91279,3.63622-2.06747,4.46075-.44528,2.37354-1.85126,2.72075-7.75134,1.91423z" fill="#f00" fill-rule="evenodd" stroke="#000"/>
<path d="m314.70368,391.68349c-2.95753-1.37862-5.24458-1.74003-7.0029-1.10661-.81135.29227-1.03438.16927-1.24988-.68936-.3704-1.47578.38764-3.17906 2.56295-5.75885 1.71079-2.02889 1.80869-2.27194 1.07956-2.67999-.76056-.42563-.76221-.49254-.032-1.29942 1.46972-1.62403 3.81558-.84127 4.84218,1.61572 1.10144,2.63613 1.56016,2.33267 6.23773-4.12641 2.15871-2.98086 3.21964-3.53389 5.8374-3.04279 2.19978.41268 3.31336,2.33871 3.31554,5.73449 .002,2.7482-.54433,4.3145-1.50427,4.3145-.32095,0-.93833.39202-1.37194.87116-.76421.84445-.77245,1.07745-.16559,4.68397 .1195.71017-.36138,1.06566-2.5255,1.86697-3.72665,1.37986-6.46537,1.2751-10.02329-.38338z" fill="#f00" fill-rule="evenodd" stroke="#000"/>
<path d="m180.06514,476.70819c-2.3466-1.59244-3.63173-3.16134-5.28004-6.44588-1.24549-2.48185-1.43311-3.29957-1.38527-6.0376 .0626-3.58346 1.1819-8.90136 2.20083-10.45643 .37452-.5716.79733-2.42749.93958-4.12421 .28113-3.35326-.33833-5.02058-2.06941-5.57-1.28149-.40673-1.64569-1.95174-.63439-2.69118 .69795-.51032.82321-1.23882.82321-4.78761 0-2.96182-.22393-4.70505-.76586-5.96188-.42123-.9769-.97523-2.60474-1.23111-3.61743s-1.4756-3.20998-2.7105-4.88285c-4.08522-5.53414-3.72913-6.68614 2.07325-6.70725 3.64426-.0133 4.25571-.15014 7.33013-1.64093 2.57376-1.24801 4.10663-2.41535 6.58782-5.01687 1.77847-1.86472 3.54928-3.3904 3.93512-3.3904s1.06027-.80125 1.50043-1.78438l.79889-1.78439 1.04612,1.11354c.57536.61245 1.29207,1.11354 1.59267,1.11354 .61573,0 3.3226,2.92749 3.3226,3.5934 0,.23742.42263.8543.93918,1.37085 .68304.68304.80501,1.07335.44723,1.43114-.83251.8325-.55523,1.72655 1.00561,3.24241 1.50954,1.46605 5.31011,9.79095 5.2745,11.55345-.009.46327-.85314,2.27455-1.87507,4.02507-2.44313,4.18497-2.67581,5.89335-1.15588,8.4869l1.16941,1.99544-.6896,7.97818c-.37927,4.388-1.0009,9.78946-1.38139,12.00324s-.84885,5.16216-1.0408,6.55193-.48582,2.74824-.65303,3.0188c-.4892.79154-1.62694.57216-3.18131-.61341-2.03685-1.55359-4.63848-1.88347-7.18479-.91103-2.22952.85146-2.93355,1.95186-3.51754,5.49792-.37873,2.29968-2.14838,4.56859-3.56329,4.56859-.55875,0-1.75904-.5043-2.6673-1.12067z" fill="#f9f9f9" fill-rule="evenodd" stroke="#000"/>
<path d="m290.49211,398.63065c-.73793-.2249-2.81021-.27962-4.60507-.12158-3.06421.2698-3.33716.21877-4.4723-.83601-.6649-.61784-3.0151-2.10554-5.22266-3.306-2.66363-1.44847-4.99539-3.16557-6.93206-5.10472-1.60507-1.60714-3.85837-3.67044-5.00733-4.58511-1.32454-1.05445-2.19585-2.14939-2.38092-2.99202-.42522-1.936-3.83968-5.49948-7.09308-7.40263-2.57224-1.5047-3.0392-2.02312-5.1705-5.74025-3.5285-6.15395-3.55679-7.46935-.25217-11.72506 1.11997-1.44229 2.14218-3.13112 2.27158-3.75294s.32918-1.59164.44394-2.15515c.29905-1.46836 1.0769-.75932 1.0769.98164 0,1.88651 1.26632,3.04297 3.68927,3.36921 1.5876.21377 2.06521.54509 3.18025,2.20614 .72165,1.07503 1.97103,2.34338 2.77641,2.81856s1.99355,1.55784 2.64039,2.4059c1.84013,2.41253 2.89978,2.14727 8.06263-2.0183 4.01289-3.23776 5.44922-4.19618 7.37928-4.92404 .86092-.32467 2.34177-1.19179 3.29078-1.92695 1.38447-1.07248 1.80296-1.21431 2.1175-.71766 .64478,1.0181.47955,1.30461-1.14347,1.98275-3.30162,1.37951-3.32269,4.76911-.0742,11.9411l1.16467,2.57135-2.20095-.0958c-2.90194-.12626-4.0488.84651-4.0488,3.43425 0,2.35969.67852,3.19609 2.85681,3.52157 2.41093.36024 5.11507,2.3289 5.56058,4.04817 .25988,1.00288.72534,1.49807 1.67349,1.78033 .72241.21506 1.85493.67255 2.51671,1.01666 .77189.40135 1.82289.52656 2.9317.34925 2.19271-.35063 5.35759,1.05517 7.26417,3.22664 1.66323,1.89431 1.69168,3.02546.13363,5.3124-.66733.97951-1.44249,2.68657-1.72258,3.79346-.34362,1.35792-.85816,2.19223-1.58188,2.56498-1.23282.63496-7.13194.68658-9.12273.0798z" fill="#f9f9f9" fill-rule="evenodd" stroke="#000"/>
<path d="m300.55477,382.0505c-2.27381-1.05334-3.33134-1.30045-4.85522-1.13452-1.84676.20108-2.12629.0675-5.36675-2.56515-1.88019-1.5275-4.37448-3.33559-5.54287-4.01798-3.18129-1.858-2.86735-2.71553.91762-2.50645 1.7749.0981 3.66648-1.03307 3.66648-2.19246 0-.46157-.70118-1.88116-1.55818-3.15466-1.47843-2.19694-2.91411-5.9696-2.91411-7.65767 0-.50657.69048-1.03999 1.98731-1.53525 1.57358-.60096 2.1694-1.14403 2.86191-2.60856 1.136-2.40241 2.2208-3.36886 6.54143-5.82775l3.56414-2.02837 1.7325,3.31929c.95287,1.82561 2.98607,4.78711 4.51821,6.5811 3.76819,4.4122 10.2215,10.38612 12.24778,11.33794 2.00124.94006 2.30938,1.35809 2.31823,3.14498 .008,1.63203-2.48562,6.84649-3.45144,7.21711-.36915.14166-1.716-.30762-2.99299-.9984-3.25225-1.75927-4.03643-1.44252-6.61712,2.67288-2.45671,3.9177-2.68269,3.98027-7.05693,1.95392z" fill="#f9f9f9" fill-rule="evenodd" stroke="#000"/>
<path d="m286.72148,348.19335c-1.20312-2.38337-1.48201-2.64763-3.06061-2.90006-2.21736-.35457-4.5104-1.89971-5.60784-3.77879-.4727-.80938-1.35135-3.40873-1.95255-5.77632-1.60909-6.33684-2.77823-8.34751-5.15771-8.87013-2.10551-.46245-6.95693-2.86481-7.23179-3.58109-.1365-.35572-.6749-.64676-1.19644-.64676-.92077,0-.91469-.0399.20958-1.376 1.3415-1.59428 1.3688-1.74235.53223-2.88643-.47995-.65638-1.10467-.83471-2.68338-.766-1.13177.0493-2.05777-.0626-2.05777-.24848 0-.74706 1.47404-2.37146 2.75129-3.03196 1.29068-.66743 1.43335-.64709 2.99165.42644 .89999.62001 2.60069,1.38304 3.77934,1.69562 2.53852.67322 3.24796.36234 4.59496-2.01346l.92397-1.62969 4.09306,3.26801c2.25118,1.7974 5.93518,4.35841 8.18668,5.69114 4.52758,2.68002 5.9101,4.11074 8.22011,8.50669 1.97755,3.76329 4.8078,12.1664 4.62498,13.73175-.12127,1.03831-.56689,1.34634-3.49322,2.41465-2.38201.8696-3.75685,1.68374-4.74331,2.80886-.76399.87138-1.61642,1.58433-1.89429,1.58433s-1.10088-1.18005-1.82894-2.62232z" fill="#f9f9f9" fill-rule="evenodd" stroke="#000"/>
<path d="m267.01256,360.20749c-.77927-.98391-1.80119-1.78892-2.27093-1.78892-.4987,0-1.40561-.79086-2.17963-1.90073-.72906-1.0454-1.58565-2.26308-1.90353-2.70596-.33386-.46514-1.2391-.84743-2.14327-.90513-2.04894-.13075-2.68338-.57097-2.68338-1.86192 0-.58285-.31104-1.37077-.6912-1.75094-.54769-.54768-.6034-1.04184-.26831-2.3799 .2326-.92878.54769-3.17621.7002-4.99428 .35575-4.24085 1.20788-6.06848 3.07794-6.60153 1.85528-.52884 2.13714-2.24549.70005-4.2637-.68577-.96307-.83993-1.48067-.47703-1.60164 .2949-.0983.53927-.71541.54303-1.37134 .014-2.43514.47358-2.53477 4.42295-.95876 2.00375.79961 3.75055,1.62755 3.88177,1.83987s.69476.38604 1.25231.38604c1.04116,0 2.46317,1.26751 3.34635,2.98277 .74443,1.44579 3.08146,8.62411 3.42868,10.53138 .40729,2.23717 2.02914,3.9278 3.76803,3.9278 .89967,0 1.69787.38169 2.33815,1.11807 .53469.61494 1.23774,1.11808 1.56235,1.11808s.59019.26423.59019.58717c0,1.09657-2.47964,2.96874-5.1479,3.88676-1.46223.50308-3.26686,1.47843-4.0103,2.16745s-2.20753,1.90892-3.25356,2.71092-2.02379,1.94399-2.17282,2.53776c-.3719,1.48178-.76681,1.36556-2.41014-.70932z" fill="#f9f9f9" fill-rule="evenodd" stroke="#000"/>
<path d="m238.97801,361.3237c-1.04171-.43977-1.73515-1.25821-2.58105-3.04631-1.34218-2.83712-5.55378-7.22178-7.67274-7.98801-1.33398-.48237-1.4552-.68179-1.39112-2.2886 .0565-1.41785-.17099-1.96764-1.1699-2.82687-.68718-.59109-1.81543-1.06669-2.53045-1.06669-1.67879,0-1.86858-.38066-1.96789-3.94691-.0701-2.51885-.40948-3.68374-2.1724-7.45744-2.62644-5.62214-3.28979-7.51521-4.37527-12.48609-1.05077-4.81197-2.25981-7.44114-4.15498-9.03535-.78026-.65635-1.64835-1.71762-1.92909-2.35839s-1.94109-2.75174-3.68965-4.69106-3.1792-3.76973-3.1792-4.06756c0-.68364 1.45354-2.02184 2.1961-2.02184 .3082,0 1.39924.6756 2.42454,1.50132s3.37359,2.36213 5.21841,3.41422 4.36049,2.65804 5.59037,3.56878c3.63409,2.69109 4.13139,2.87614 5.43456,2.02227 1.04891-.68727 1.18338-.6857 1.96643.0229 2.25167,2.03774 9.22225,1.41367 12.87465-1.15266 2.27641-1.5995 2.76103-1.51962 5.91754.97546 1.52421,1.20482 2.187,2.02149 2.01159,2.4786-.53061,1.38276.62746,4.07762 2.3277,5.41664 2.44852,1.92831 6.08626,3.64572 8.39148,3.96169 1.11209.15243 2.12432.44274 2.24941.64514 .24293.39307-1.40042,3.77745-2.90948,5.9919-1.20993,1.77548-1.15725,3.0039.19786,4.61435 1.4453,1.71764 1.40896,2.12881-.23895,2.70327-1.96994.68673-2.66804,2.73261-2.66804,7.81906 0,4.4964-.17605,4.90267-2.36225,5.45137-1.58552.39794-2.10836,1.40861-2.11689,4.09199-.008,2.47757-.0872,2.62333-2.34111,4.30338-1.4394,1.07291-1.67711,1.4982-1.67711,3.00052 0,1.21655-.23871,1.87242-.78265,2.1504-1.51571.7746-3.48131.89537-4.89042.30048z" fill="#f9f9f9" fill-rule="evenodd" stroke="#000"/>
<path d="m252.64354,316.82354c-1.94922-1.02999-3.96739-3.31784-3.96739-4.49751 0-.46955.23882-1.74667.53072-2.83805 .60535-2.26333.0749-3.395-1.59175-3.39562-.52333-.0002-2.22741-.60396-3.78685-1.34169s-3.281-1.34134-3.8257-1.34134-1.98571.63732-3.20226,1.41627c-1.58116,1.01241-2.91331,1.47436-4.67166,1.62001-1.35287.11206-2.69435.39094-2.98108.61973-.32985.26319-1.42287.15389-2.97594-.2976-1.35005-.39247-2.9577-.58732-3.57255-.433-.87147.21872-1.49714-.0596-2.83804-1.26248-.94607-.84868-3.83328-2.68351-6.41603-4.0774s-5.06489-3.03089-5.51586-3.63778c-.67118-.90321-1.19864-1.10084-2.907-1.0892-1.14787.008-2.47769.30971-2.95516.67085-1.66507,1.25939-4.27501.37361-4.27501-1.45089 0-1.44261-1.91875-3.91595-3.14598-4.05529-.60649-.0689-1.59278-.23299-2.19175-.36472l-1.08905-.23952 1.08905-.54165c1.01368-.50418 1.11018-.85939 1.3944-5.13285 .21542-3.2391.55165-5.01292 1.1417-6.02322 1.01501-1.73794 2.90733-2.53625 4.15901-1.75456 1.19268.74484 4.10258.67968 5.15377-.1154 1.28691-.97337 1.84813-.83016 2.34623.59869 .35377,1.01484.80795,1.3495 2.16809,1.59756 .94631.17259 3.49207,1.01803 5.65724,1.87876 5.56986,2.21422 6.65389,2.33184 7.82063.84857 .7352-.93466 1.11487-1.10204 1.74672-.77005 .44403.2333 4.42988.54439 8.85746.69132s9.2789.39366 10.78073.54829c2.48197.25557 2.9008.16854 4.59963-.95569l1.86902-1.23686 3.70262.55086c2.03645.30298 3.92689.68946 4.20098.85886 .28791.17794.7112,3.04372 1.00238,6.78632 .86924,11.17243 1.98572,14.28027 7.11903,19.81655 1.7119,1.84628 3.44265,3.99524 3.84611,4.77545 .69301,1.34013.6894,1.41006-.0653,1.26472-.43939-.0846-1.08987-.75619-1.44553-1.49238l-.96993-2.00936c-.41227-.85548-3.01417-.80198-5.25408.10803-.9116.37036-2.24862.85017-2.97117,1.06626-.99726.29824-1.61912,1.01215-2.58144,2.96352-.69724,1.41384-1.51484,2.56173-1.81688,2.55086s-1.2795-.40568-2.17214-.87737z" fill="#f9f9f9" fill-rule="evenodd" stroke="#000"/>
</g>
</svg>
